HIERARCHY
ROOT Pelvis
{
	OFFSET 0.000000 0.941512 0.000000
	CHANNELS 6 Xposition Yposition Zposition Zrotation Yrotation Xrotation 
	JOINT Pelvis_L_Hip
	{
		OFFSET 0.000000 0.000000 0.000000
		CHANNELS 3 Zrotation Yrotation Xrotation
		JOINT L_Hip
		{
			OFFSET 0.062321 -0.080322 -0.016990
			CHANNELS 3 Zrotation Yrotation Xrotation
			JOINT L_Knee
			{
				OFFSET 0.093051 -0.381305 -0.029784
				CHANNELS 3 Zrotation Yrotation Xrotation
				JOINT L_Ankle
				{
					OFFSET -0.010371 -0.431000 -0.033614
					CHANNELS 3 Zrotation Yrotation Xrotation
					End Site #name: L_Foot
					{
						OFFSET 0.069299 -0.038670 0.119418
					}
				}
			}
		}
	}
	JOINT Pelvis_R_Hip
	{
		OFFSET 0.000000 0.000000 0.000000
		CHANNELS 3 Zrotation Yrotation Xrotation
		JOINT R_Hip
		{
			OFFSET -0.055334 -0.094904 -0.002373
			CHANNELS 3 Zrotation Yrotation Xrotation
			JOINT R_Knee
			{
				OFFSET -0.064207 -0.384370 -0.019592
				CHANNELS 3 Zrotation Yrotation Xrotation
				JOINT R_Ankle
				{
					OFFSET 0.025418 -0.419734 -0.065953
					CHANNELS 3 Zrotation Yrotation Xrotation
					End Site #name: R_Foot
					{
						OFFSET -0.057233 -0.039888 0.132134
					}
				}
			}
		}
	}
	JOINT Pelvis_Spine1
	{
		OFFSET 0.000000 0.000000 0.000000
		CHANNELS 3 Zrotation Yrotation Xrotation
		JOINT Spine1
		{
			OFFSET -0.005562 0.124093 -0.043360
			CHANNELS 3 Zrotation Yrotation Xrotation
			JOINT Spine2
			{
				OFFSET 0.012244 0.139499 0.029894
				CHANNELS 3 Zrotation Yrotation Xrotation
				JOINT Spine3
				{
					OFFSET -0.002556 0.056561 0.009225
					CHANNELS 3 Zrotation Yrotation Xrotation
					JOINT Spine3_Neck
					{
						OFFSET 0.000000 0.000000 0.000000
						CHANNELS 3 Zrotation Yrotation Xrotation
						JOINT Neck
						{
							OFFSET -0.005205 0.217920 -0.024551
							CHANNELS 3 Zrotation Yrotation Xrotation
							End Site #name: Head
							{
								OFFSET 0.002365 0.091850 0.046637
							}
						}
					}
					JOINT Spine3_L_Collar
					{
						OFFSET 0.000000 0.000000 0.000000
						CHANNELS 3 Zrotation Yrotation Xrotation
						JOINT L_Collar
						{
							OFFSET 0.072225 0.116603 -0.009480
							CHANNELS 3 Zrotation Yrotation Xrotation
							JOINT L_Shoulder
							{
								OFFSET 0.115937 -0.058643 -0.021018
								CHANNELS 3 Zrotation Yrotation Xrotation
								JOINT L_Elbow
								{
									OFFSET 0.021994 -0.254722 -0.024492
									CHANNELS 3 Zrotation Yrotation Xrotation
									End Site #name: L_Wrist
									{
										OFFSET 0.048810 -0.240214 0.103329
									}
								}
							}
						}
					}
					JOINT Spine3_R_Collar
					{
						OFFSET 0.000000 0.000000 0.000000
						CHANNELS 3 Zrotation Yrotation Xrotation
						JOINT R_Collar
						{
							OFFSET -0.073372 0.120704 -0.024611
							CHANNELS 3 Zrotation Yrotation Xrotation
							JOINT R_Shoulder
							{
								OFFSET -0.108089 -0.054969 -0.020504
								CHANNELS 3 Zrotation Yrotation Xrotation
								JOINT R_Elbow
								{
									OFFSET -0.033684 -0.260739 0.009889
									CHANNELS 3 Zrotation Yrotation Xrotation
									End Site #name: R_Wrist
									{
										OFFSET -0.067980 -0.232763 0.118463
									}
								}
							}
						}
					}
				}
			}
		}
	}
}
MOTION
Frames: 15
Frame Time: 0.041667
0.000000 0.911606 0.000000 -4.976608 -1.162182 -2.548873 0.000000 0.000000 0.000000 5.916116 0.669279 5.789490 0.960237 -0.303022 7.007271 8.390053 17.667507 -4.734101 0.000000 0.000000 0.000000 2.078798 4.103528 -22.308051 5.817872 -0.658611 24.044103 -2.895876 -6.998750 -1.910965 0.000000 0.000000 0.000000 3.055755 -2.806370 18.005554 -1.611760 -0.037248 -5.091361 2.638685 3.128900 0.484381 0.000000 0.000000 0.000000 -4.172861 2.171238 4.581071 0.000000 0.000000 0.000000 15.858737 -6.716786 -1.354842 -12.593687 -2.356484 -17.978106 -12.531892 -12.287856 -18.323319 0.000000 0.000000 0.000000 -23.266442 5.735801 0.078954 9.315526 -2.794940 14.738653 -1.228878 3.534784 -14.005801 
-0.018232 0.907484 0.021588 -6.053723 -2.654106 -2.205467 0.000000 0.000000 0.000000 8.241302 0.370671 5.599752 0.466993 -0.332076 10.939774 8.614809 18.427562 -4.812428 0.000000 0.000000 0.000000 4.484698 4.476755 -22.105973 6.328759 -0.738958 25.784848 -3.401143 -6.344233 -3.692344 0.000000 0.000000 0.000000 5.896452 -3.797485 17.736540 -1.659110 0.000068 -4.596889 2.341322 2.920431 0.785244 0.000000 0.000000 0.000000 -4.428134 2.341388 4.709312 0.000000 0.000000 0.000000 14.989072 -6.891575 -1.695404 -12.268982 -2.231858 -17.571479 -9.268939 -9.987264 -18.031175 0.000000 0.000000 0.000000 -23.599421 6.556270 -0.368428 8.745340 -2.587068 14.001547 -1.498286 3.532292 -14.580474 
-0.035843 0.902351 0.042376 -6.765639 -3.408920 -1.311646 0.000000 0.000000 0.000000 10.790784 -0.386306 2.511164 -1.357770 -0.049060 18.519009 8.902235 18.711284 -5.373523 0.000000 0.000000 0.000000 6.311029 4.855555 -22.442040 6.980851 -0.925863 27.394337 -4.629250 -6.802762 -6.537660 0.000000 0.000000 0.000000 8.194949 -4.508209 16.830085 -1.332465 -0.028565 -4.420512 2.003885 2.287864 1.713591 0.000000 0.000000 0.000000 -4.437799 2.368503 4.247952 0.000000 0.000000 0.000000 15.060175 -7.074201 -1.903650 -13.325403 -2.139003 -17.025798 -6.540986 -7.416769 -15.637282 0.000000 0.000000 0.000000 -23.862691 6.499135 -0.106871 8.198359 -2.179375 12.198968 -1.144823 4.099626 -15.600075 
-0.051628 0.900775 0.063300 -6.594852 -3.834566 -1.026323 0.000000 0.000000 0.000000 12.114279 -1.034617 -1.494652 -3.510029 0.671900 27.893386 8.741362 18.703118 -5.014987 0.000000 0.000000 0.000000 7.013042 4.717720 -21.398981 7.574086 -1.124295 27.836029 -5.362379 -6.660504 -8.531257 0.000000 0.000000 0.000000 8.947592 -4.721903 16.545514 -0.681327 -0.089851 -4.054264 1.952009 1.795485 2.260692 0.000000 0.000000 0.000000 -4.916491 2.630591 3.430463 0.000000 0.000000 0.000000 15.136587 -7.299603 -2.116978 -14.140624 -1.943567 -16.037597 -5.450297 -5.620857 -11.856410 0.000000 0.000000 0.000000 -22.978815 6.327795 0.013680 7.003457 -1.932361 11.361431 -0.798558 4.942997 -17.405673 
-0.065780 0.903678 0.084390 -5.953816 -4.520601 -0.922304 0.000000 0.000000 0.000000 12.373200 -1.523701 -5.293923 -6.392543 2.068930 34.668574 8.130739 15.017322 -6.592921 0.000000 0.000000 0.000000 7.450434 4.306794 -19.448686 7.373584 -0.981326 26.965908 -5.700210 -5.755009 -9.894551 0.000000 0.000000 0.000000 8.846821 -4.600307 16.296611 -0.176746 -0.120596 -3.337391 2.031548 1.914337 2.107059 0.000000 0.000000 0.000000 -5.885764 3.160857 3.229538 0.000000 0.000000 0.000000 15.050718 -7.065588 -1.997903 -14.664565 -1.678838 -14.719700 -5.524177 -4.518986 -7.836917 0.000000 0.000000 0.000000 -21.882294 6.417010 -0.179009 6.857934 -1.999535 11.776832 -1.534093 4.879996 -18.829952 
-0.077645 0.909785 0.106681 -5.431845 -5.164763 -1.288055 0.000000 0.000000 0.000000 11.174683 -1.999743 -9.026943 -7.853802 3.118096 39.637811 7.424537 11.934138 -7.227709 0.000000 0.000000 0.000000 8.276849 3.569763 -16.108860 6.190549 -0.501391 24.869876 -5.578363 -4.068716 -10.476440 0.000000 0.000000 0.000000 9.093220 -4.672467 16.459837 -0.224779 -0.105879 -3.164066 1.906116 2.455654 2.163097 0.000000 0.000000 0.000000 -6.993692 3.780519 3.443672 0.000000 0.000000 0.000000 14.785447 -5.961033 -1.251782 -15.373360 -1.325360 -13.022943 -5.407768 -3.894886 -5.790580 0.000000 0.000000 0.000000 -21.918096 6.684123 -0.405294 8.594970 -2.268018 12.472013 -1.725580 4.719400 -18.781552 
-0.088606 0.916950 0.130503 -4.839617 -5.534395 -2.176025 0.000000 0.000000 0.000000 9.086856 -2.485079 -12.027781 -8.225766 3.526248 41.909522 7.319874 12.109811 -6.884968 0.000000 0.000000 0.000000 9.072642 2.490815 -11.607894 4.571572 0.009494 21.714095 -5.367917 -2.361649 -10.831249 0.000000 0.000000 0.000000 9.123316 -4.779230 17.291073 -0.630570 -0.074715 -3.652388 1.952660 3.189437 2.414284 0.000000 0.000000 0.000000 -8.117516 4.409857 3.693511 0.000000 0.000000 0.000000 14.241229 -4.269921 -0.121678 -15.794534 -0.905446 -11.114065 -5.265775 -3.651251 -5.154078 0.000000 0.000000 0.000000 -22.508099 7.063757 -0.699052 10.286444 -2.612880 13.400395 -0.235073 5.415759 -17.581303 
-0.098090 0.920675 0.153096 -4.029169 -5.601424 -2.121019 0.000000 0.000000 0.000000 6.362433 -3.386458 -16.425338 -8.160101 3.548628 42.121798 7.635183 13.846855 -6.379737 0.000000 0.000000 0.000000 9.018903 1.779364 -8.860275 3.791749 0.182030 19.474832 -5.411823 -1.428096 -11.388167 0.000000 0.000000 0.000000 8.825885 -4.646128 17.233888 -1.003683 -0.060378 -4.332247 2.043491 3.996718 2.577325 0.000000 0.000000 0.000000 -9.367945 5.083972 3.632835 0.000000 0.000000 0.000000 13.274470 -1.915618 1.348234 -15.071038 -0.419709 -8.845824 -5.663128 -4.184078 -6.366819 0.000000 0.000000 0.000000 -22.656492 7.417249 -1.063275 10.541889 -2.955270 14.796876 2.250954 6.753049 -16.281240 
-0.109153 0.922017 0.176970 -4.080873 -5.443097 -2.853042 0.000000 0.000000 0.000000 4.705617 -4.107964 -19.487149 -7.995175 3.203651 39.485353 7.399713 14.324043 -5.482207 0.000000 0.000000 0.000000 10.095533 0.819996 -5.010137 2.936230 0.324851 17.096571 -5.578848 -0.716944 -12.155152 0.000000 0.000000 0.000000 8.440663 -4.633145 18.079774 -0.950343 -0.070898 -4.402673 2.611262 5.011814 2.522242 0.000000 0.000000 0.000000 -10.546397 5.615006 2.649149 0.000000 0.000000 0.000000 12.576043 -0.173919 2.437965 -14.326753 -0.083061 -7.080416 -5.504794 -4.349971 -7.248425 0.000000 0.000000 0.000000 -22.609880 8.092813 -1.778026 10.060159 -3.246496 16.319774 4.244750 7.799859 -15.274409 
-0.120727 0.921280 0.202002 -4.403283 -5.085317 -3.865002 0.000000 0.000000 0.000000 3.355596 -4.712086 -21.677194 -7.716448 2.625139 34.420574 6.921546 15.606804 -3.357588 0.000000 0.000000 0.000000 11.431820 -0.286853 -0.843259 2.126290 0.427832 14.903478 -5.782039 -0.116861 -12.986651 0.000000 0.000000 0.000000 7.666858 -4.509633 19.143726 -0.643614 -0.091322 -4.018156 3.345686 6.122342 2.308236 0.000000 0.000000 0.000000 -11.131978 5.790294 1.549259 0.000000 0.000000 0.000000 12.117382 0.797283 3.066850 -13.457034 0.128806 -5.748627 -5.184012 -4.084551 -6.881776 0.000000 0.000000 0.000000 -22.356102 8.971120 -2.707757 9.700163 -3.511393 17.711232 4.948725 8.003677 -14.534066 
-0.130583 0.918786 0.227886 -4.823603 -4.453421 -4.425599 0.000000 0.000000 0.000000 1.960137 -5.310174 -23.490299 -7.089935 1.882258 27.469563 6.650704 17.401688 -1.161735 0.000000 0.000000 0.000000 12.638765 -1.288581 2.616333 1.574529 0.459580 13.128650 -5.943010 0.363892 -13.708065 0.000000 0.000000 0.000000 6.901253 -4.348231 19.824138 -0.337762 -0.121176 -3.799724 4.070496 7.150077 1.925410 0.000000 0.000000 0.000000 -10.905094 5.590146 1.059603 0.000000 0.000000 0.000000 11.632292 1.510666 3.510037 -12.754639 0.227024 -4.928924 -4.204819 -3.142671 -5.193696 0.000000 0.000000 0.000000 -22.641987 9.701120 -3.472201 10.070426 -3.717018 18.430064 4.643612 7.523199 -13.866315 
-0.139066 0.912926 0.251553 -5.284617 -3.728571 -3.462178 0.000000 0.000000 0.000000 0.756220 -6.131754 -26.241623 -6.141531 1.179130 19.386892 7.182201 20.673444 0.725796 0.000000 0.000000 0.000000 13.826045 -1.579500 3.232407 1.451492 0.485797 13.271691 -6.601054 -0.156479 -15.147862 0.000000 0.000000 0.000000 6.388081 -4.086299 18.991862 -0.190137 -0.160375 -4.240386 4.557635 7.903194 2.302132 0.000000 0.000000 0.000000 -10.154536 5.166127 0.686209 0.000000 0.000000 0.000000 11.643536 2.143432 3.999138 -12.631400 0.269891 -4.631537 -3.317156 -2.298980 -3.556058 0.000000 0.000000 0.000000 -23.352205 10.172713 -3.964622 10.615450 -3.728563 18.134163 4.330829 7.287026 -13.830391 
-0.148269 0.907146 0.279422 -5.890623 -3.259790 -3.303846 0.000000 0.000000 0.000000 -0.366755 -6.416286 -26.563194 -4.380750 0.569664 12.689794 7.145427 21.981436 2.231367 0.000000 0.000000 0.000000 15.115873 -2.310184 5.269321 1.203322 0.518771 12.877313 -6.982759 -0.129648 -16.178897 0.000000 0.000000 0.000000 5.964543 -3.919635 18.727842 -0.314343 -0.129221 -3.872443 4.875333 8.440609 2.070534 0.000000 0.000000 0.000000 -9.932947 5.032329 0.658866 0.000000 0.000000 0.000000 11.466093 2.372096 4.155666 -12.183274 0.450034 -3.496439 -2.635765 -1.848569 -3.016802 0.000000 0.000000 0.000000 -23.836262 11.186971 -4.895889 10.610681 -3.710078 18.069549 4.161271 7.485543 -14.631546 
-0.158192 0.899998 0.311656 -6.487632 -3.217149 -3.398668 0.000000 0.000000 0.000000 -0.716867 -6.423914 -26.343854 -3.376893 0.374552 12.942497 6.217891 19.287796 1.681932 0.000000 0.000000 0.000000 16.382519 -3.118456 7.427167 1.122312 0.566097 13.360219 -7.524499 -0.570758 -17.337893 0.000000 0.000000 0.000000 5.287207 -3.676909 18.819068 -0.477648 -0.109091 -3.883212 5.116575 8.867260 1.734062 0.000000 0.000000 0.000000 -10.414195 5.257197 0.654694 0.000000 0.000000 0.000000 11.536215 2.717949 4.427129 -11.706606 0.720181 -1.868338 -2.584545 -1.828237 -3.029067 0.000000 0.000000 0.000000 -24.034432 12.062035 -5.684598 10.285161 -3.663017 18.069891 4.060937 8.018212 -16.150688 
-0.168969 0.893343 0.346085 -6.475958 -3.151943 -3.168243 0.000000 0.000000 0.000000 -0.304079 -6.515337 -27.019806 -3.169496 0.368945 17.114858 4.601487 17.638316 3.797962 0.000000 0.000000 0.000000 17.313817 -3.423005 7.999719 0.867982 0.829214 16.457199 -8.007612 -1.473482 -18.175810 0.000000 0.000000 0.000000 3.786846 -3.025057 18.257595 -0.537092 -0.102425 -3.903306 5.004601 8.823981 1.572672 0.000000 0.000000 0.000000 -11.034814 5.536048 0.254508 0.000000 0.000000 0.000000 11.335735 2.937685 4.506788 -10.539791 0.817284 -0.827142 -2.675346 -1.634426 -2.034280 0.000000 0.000000 0.000000 -23.205433 12.475126 -6.038471 9.370927 -3.408463 17.435537 4.372183 8.787728 -17.491581 
